<svg xmlns="http://www.w3.org/2000/svg" width="161.618" height="23" viewBox="0 0 161.618 23"><defs><style>.a,.c{fill:#9460a4;}.a,.b{fill-rule:evenodd;}</style></defs><g transform="translate(0 -10.8)"><path class="a" d="M228.669,24V20.959a3.046,3.046,0,0,0-.38-1.426,2.813,2.813,0,0,0-2.661-1.9c-2.661,0-2.946,3.326-2.946,5.322,0,2.091.238,5.512,3.089,5.512a2.653,2.653,0,0,0,1.758-.618C228.669,26.9,228.669,25.426,228.669,24Zm2,5.845h-1.806v-1.9A3.829,3.829,0,0,1,225.2,30.13c-3.8,0-4.8-3.8-4.8-6.938,0-3.089,1.045-7.271,4.847-7.271a3.465,3.465,0,0,1,3.422,2.138V12.5h2V29.845Z" transform="translate(-115.664 -0.892)"/><path class="b" d="M10.977,26.791c0-2.8-.76-6.891-4.372-6.891-1.616,0-2.329.95-3.089,2.233V20.09H0V38.338H3.754V32.731a3.222,3.222,0,0,0,2.614,1.236C10.169,33.919,10.977,29.832,10.977,26.791Zm-3.944-.1c0,1,.048,3.089-.523,3.944a1.184,1.184,0,0,1-1.188.618c-1.758,0-1.616-1.711-1.616-2.994V24.937c0-1.14.285-2.519,1.711-2.519,1.758,0,1.616,2.9,1.616,4.087C7.033,26.505,7.033,26.7,7.033,26.7Z" transform="translate(0 -4.776)"/><path class="b" d="M35.35,29.845V20.769c0-2.519-.285-4.847-3.421-4.847A3.5,3.5,0,0,0,28.6,17.632V12.5H24.8V29.845h3.8V21.2c0-1.236.143-2.281,1.616-2.281,1.426,0,1.331,1.045,1.331,2.233v8.7Z" transform="translate(-13.015 -0.892)"/><path class="b" d="M57.692,20.3H54.413l-1.758,8.316L50.8,20.3H47l3.9,13.4c-.428,1.473-.665,1.948-2.233,1.948a7.8,7.8,0,0,1-1.093-.1v2.994a6.647,6.647,0,0,0,1.616.238c3.089,0,3.659-2.138,4.419-4.61Z" transform="translate(-24.665 -4.986)"/><path class="b" d="M78.564,29.442c0-2.661-1.9-3.421-4.039-4.182a8.72,8.72,0,0,1-1.711-.713,1.3,1.3,0,0,1-.57-1.14,1.122,1.122,0,0,1,1.188-1.188c1.188,0,1.663.855,2,1.853l2.709-.808a4.426,4.426,0,0,0-4.61-3.564c-2.614,0-4.847,1.568-4.847,4.324,0,2.566,1.9,3.564,4.087,4.277a6.816,6.816,0,0,1,1.616.665,1.2,1.2,0,0,1,.57,1.14c0,.9-.713,1.236-1.473,1.236-1.331,0-1.9-.808-2.186-2.043l-2.994.475c.428,2.9,2.281,4.039,5.132,4.039C76.141,33.909,78.564,32.388,78.564,29.442Z" transform="translate(-35.843 -4.671)"/><rect width="3.802" height="13.638" transform="translate(43.529 15.314)"/><rect width="3.802" height="2.519" transform="translate(43.529 11.608)"/><path class="b" d="M112.487,28.539l-3.564-.238c-.048,1.045-.238,2.519-1.568,2.519-1.853,0-1.806-2.946-1.806-4.182,0-1.283.048-4.087,1.9-4.087,1.283,0,1.426,1.616,1.473,2.566l3.564-.143c-.143-1.616-.285-2.709-1.473-3.9a4.79,4.79,0,0,0-3.659-1.378c-4.229,0-5.655,3.326-5.655,7.081,0,3.659,1.236,7.128,5.465,7.128C110.634,33.909,112.107,31.818,112.487,28.539Z" transform="translate(-53.371 -4.671)"/><path class="b" d="M135.264,29.442c0-2.661-1.9-3.421-4.039-4.182a8.721,8.721,0,0,1-1.711-.713,1.3,1.3,0,0,1-.57-1.14,1.122,1.122,0,0,1,1.188-1.188c1.188,0,1.663.855,2,1.853l2.709-.808a4.426,4.426,0,0,0-4.61-3.564c-2.614,0-4.847,1.568-4.847,4.324,0,2.566,1.9,3.564,4.087,4.277a6.816,6.816,0,0,1,1.616.665,1.2,1.2,0,0,1,.57,1.14c0,.9-.713,1.236-1.473,1.236-1.331,0-1.9-.808-2.186-2.043L125,29.774c.428,2.9,2.281,4.039,5.132,4.039C132.841,33.909,135.264,32.388,135.264,29.442Z" transform="translate(-65.599 -4.671)"/><path class="a" d="M160.579,20.3h-1.663l-2.471,10.36L153.926,20.3h-1.473l-2.281,10.217L147.8,20.3h-2l3.374,13.638h1.853l2.186-9.6,2.329,9.6h1.711Z" transform="translate(-76.515 -4.986)"/><path class="a" d="M186.855,26.866c0-3.517-1-7.366-5.227-7.366-4.134,0-5.227,3.754-5.227,7.223s1.093,7.176,5.18,7.176S186.855,30.335,186.855,26.866Zm-2.233-.143c0,1.948-.285,5.465-2.994,5.465s-2.994-3.517-2.994-5.512.333-5.465,2.994-5.465C184.336,21.211,184.621,24.727,184.621,26.723Z" transform="translate(-92.573 -4.566)"/><path class="a" d="M206.1,21.829V19.548a1.465,1.465,0,0,0-.475-.048,3.141,3.141,0,0,0-1.948.808,5.317,5.317,0,0,0-1.473,2.424V19.88H200.4V33.519h2.043V26.486c0-2.091.618-4.7,3.184-4.7A1.783,1.783,0,0,1,206.1,21.829Z" transform="translate(-105.168 -4.566)"/><rect class="c" width="2.043" height="17.345" transform="translate(101.885 11.608)"/><g transform="translate(119.23 11.608)"><rect width="0.475" height="21.052"/></g><path d="M259.968,33.552a5.69,5.69,0,0,1-1.568-.238V31.651a4.666,4.666,0,0,0,1.378.238c1.568,0,1.568-1.093,1.568-2.329V16.492h2v11.88C263.39,30.938,263.342,33.552,259.968,33.552ZM261.3,14.876V12.5h2.186v2.376Z" transform="translate(-135.606 -0.892)"/><path d="M277.28,34.5c-4.087,0-5.18-3.707-5.18-7.176s1.093-7.223,5.227-7.223c4.229,0,5.227,3.8,5.227,7.366C282.507,30.887,281.319,34.5,277.28,34.5Zm0-12.688c-2.661,0-2.994,3.469-2.994,5.465s.285,5.512,2.994,5.512c2.661,0,2.994-3.517,2.994-5.465C280.274,25.327,279.988,21.811,277.28,21.811Z" transform="translate(-142.796 -4.881)"/><path d="M301.837,29.523c-1.853,0-2.614-.57-3.469-2.186-.19.618-.333,1.283-.523,1.9H296.8V10.8h2v6.605a3.805,3.805,0,0,1,3.469-2.091c3.8,0,4.752,3.944,4.752,7.033C307.017,25.817,305.924,29.523,301.837,29.523Zm.048-12.5c-2.233,0-3.041,2.424-3.041,4.324v2.091c0,2.091.428,4.419,2.994,4.419,2.851,0,2.946-3.469,2.946-5.56C304.783,20.162,304.688,17.025,301.885,17.025Z" transform="translate(-155.758)"/><path d="M324.195,34.551c-2.709,0-4.324-1.236-4.895-3.9l1.9-.428a2.879,2.879,0,0,0,3.136,2.614c1.331,0,2.756-.713,2.756-2.233,0-2.471-4.372-2.281-6.083-3.8a3.387,3.387,0,0,1-1.141-2.519,4.208,4.208,0,0,1,4.467-4.087,4.445,4.445,0,0,1,3.279,1.331,4.692,4.692,0,0,1,1,2.138l-1.758.428a2.7,2.7,0,0,0-2.661-2.186A2.139,2.139,0,0,0,321.866,24c0,1.093.808,1.616,1.758,1.948,2.328.713,5.56,1.331,5.56,4.467C329.137,33.126,326.713,34.551,324.195,34.551Z" transform="translate(-167.566 -4.933)"/></g></svg>